<svg width="32" height="32" viewBox="0 0 32 32" fill="none" xmlns="http://www.w3.org/2000/svg">
<path d="M12.6667 10V12H10.6667V13.3333H12.6667V15.3333H14V13.3333H16V12H14V10H12.6667Z" fill="black"/>
<path d="M11.3334 17.3333C10.9652 17.3333 10.6667 17.6318 10.6667 18C10.6667 18.3682 10.9652 18.6666 11.3334 18.6666H20.6667C21.0349 18.6666 21.3334 18.3682 21.3334 18C21.3334 17.6318 21.0349 17.3333 20.6667 17.3333H11.3334Z" fill="black"/>
<path d="M10.6667 21.3334C10.6667 20.9652 10.9652 20.6667 11.3334 20.6667H20.6667C21.0349 20.6667 21.3334 20.9652 21.3334 21.3334C21.3334 21.7016 21.0349 22 20.6667 22H11.3334C10.9652 22 10.6667 21.7016 10.6667 21.3334Z" fill="black"/>
<path d="M11.3334 24C10.9652 24 10.6667 24.2985 10.6667 24.6667C10.6667 25.0349 10.9652 25.3333 11.3334 25.3333H20.6667C21.0349 25.3333 21.3334 25.0349 21.3334 24.6667C21.3334 24.2985 21.0349 24 20.6667 24H11.3334Z" fill="black"/>
<path fill-rule="evenodd" clip-rule="evenodd" d="M11.3334 4.66669C11.3334 3.56212 12.2288 2.66669 13.3334 2.66669H18.6667C19.7713 2.66669 20.6667 3.56212 20.6667 4.66669H23.3334C24.438 4.66669 25.3334 5.56212 25.3334 6.66669V27.3334C25.3334 28.438 24.438 29.3334 23.3334 29.3334H8.66669C7.56209 29.3334 6.66669 28.438 6.66669 27.3334V6.66669C6.66669 5.56212 7.56209 4.66669 8.66669 4.66669H11.3334ZM18.6667 8.00002C19.7713 8.00002 20.6667 7.10462 20.6667 6.00002H23.3334C23.7016 6.00002 24 6.2985 24 6.66669V27.3334C24 27.7016 23.7016 28 23.3334 28H8.66669C8.29849 28 8.00002 27.7016 8.00002 27.3334V6.66669C8.00002 6.2985 8.29849 6.00002 8.66669 6.00002H11.3334C11.3334 7.10462 12.2288 8.00002 13.3334 8.00002H18.6667ZM13.3334 4.00002C12.9652 4.00002 12.6667 4.2985 12.6667 4.66669V6.00002C12.6667 6.36821 12.9652 6.66669 13.3334 6.66669H18.6667C19.0349 6.66669 19.3334 6.36821 19.3334 6.00002V4.66669C19.3334 4.2985 19.0349 4.00002 18.6667 4.00002H13.3334Z" fill="black"/>
</svg>
